<svg xmlns="http://www.w3.org/2000/svg" xmlns:xlink="http://www.w3.org/1999/xlink" width="400" zoomAndPan="magnify" viewBox="0 0 300 299.999988" height="400" preserveAspectRatio="xMidYMid meet" version="1.0"><defs><clipPath id="68f0ac3c70"><path d="M 75.109375 75.109375 L 225 75.109375 L 225 225 L 75.109375 225 Z M 75.109375 75.109375 " clip-rule="nonzero"/></clipPath></defs><g clip-path="url(#68f0ac3c70)"><path fill="#c2c2c2" d="M 224.890625 149.980469 C 224.890625 151.207031 224.859375 152.429688 224.800781 153.65625 C 224.738281 154.878906 224.648438 156.101562 224.527344 157.324219 C 224.410156 158.542969 224.257812 159.757812 224.078125 160.972656 C 223.898438 162.183594 223.6875 163.394531 223.449219 164.59375 C 223.210938 165.796875 222.941406 166.992188 222.644531 168.183594 C 222.347656 169.371094 222.019531 170.554688 221.664062 171.726562 C 221.308594 172.898438 220.921875 174.0625 220.511719 175.21875 C 220.097656 176.371094 219.65625 177.515625 219.1875 178.648438 C 218.71875 179.78125 218.21875 180.902344 217.695312 182.011719 C 217.171875 183.121094 216.621094 184.214844 216.042969 185.296875 C 215.464844 186.375 214.859375 187.445312 214.230469 188.496094 C 213.601562 189.546875 212.945312 190.582031 212.261719 191.601562 C 211.582031 192.621094 210.875 193.625 210.144531 194.609375 C 209.414062 195.59375 208.660156 196.558594 207.882812 197.507812 C 207.105469 198.453125 206.304688 199.382812 205.480469 200.292969 C 204.660156 201.199219 203.8125 202.085938 202.945312 202.953125 C 202.078125 203.820312 201.191406 204.667969 200.28125 205.488281 C 199.375 206.3125 198.445312 207.113281 197.5 207.890625 C 196.550781 208.667969 195.585938 209.425781 194.601562 210.152344 C 193.613281 210.882812 192.613281 211.589844 191.59375 212.273438 C 190.574219 212.953125 189.539062 213.609375 188.488281 214.238281 C 187.433594 214.871094 186.367188 215.472656 185.289062 216.050781 C 184.207031 216.628906 183.109375 217.179688 182.003906 217.703125 C 180.894531 218.230469 179.773438 218.726562 178.640625 219.195312 C 177.507812 219.664062 176.363281 220.105469 175.210938 220.519531 C 174.054688 220.929688 172.890625 221.316406 171.71875 221.671875 C 170.546875 222.027344 169.363281 222.355469 168.175781 222.652344 C 166.984375 222.949219 165.789062 223.21875 164.585938 223.457031 C 163.382812 223.699219 162.175781 223.90625 160.964844 224.085938 C 159.75 224.265625 158.535156 224.417969 157.3125 224.535156 C 156.09375 224.65625 154.871094 224.746094 153.648438 224.808594 C 152.421875 224.867188 151.195312 224.898438 149.972656 224.898438 C 148.746094 224.898438 147.519531 224.867188 146.292969 224.808594 C 145.070312 224.746094 143.847656 224.65625 142.628906 224.535156 C 141.40625 224.417969 140.191406 224.265625 138.976562 224.085938 C 137.765625 223.90625 136.558594 223.695312 135.355469 223.457031 C 134.152344 223.21875 132.957031 222.949219 131.765625 222.652344 C 130.578125 222.355469 129.398438 222.027344 128.222656 221.671875 C 127.050781 221.316406 125.886719 220.929688 124.730469 220.519531 C 123.578125 220.105469 122.433594 219.664062 121.300781 219.195312 C 120.167969 218.726562 119.046875 218.230469 117.9375 217.703125 C 116.832031 217.179688 115.734375 216.628906 114.65625 216.050781 C 113.574219 215.472656 112.507812 214.871094 111.457031 214.238281 C 110.402344 213.609375 109.367188 212.953125 108.347656 212.273438 C 107.328125 211.589844 106.328125 210.882812 105.34375 210.152344 C 104.355469 209.425781 103.390625 208.667969 102.441406 207.890625 C 101.496094 207.113281 100.566406 206.3125 99.660156 205.488281 C 98.75 204.667969 97.863281 203.820312 96.996094 202.953125 C 96.128906 202.085938 95.285156 201.199219 94.460938 200.292969 C 93.636719 199.382812 92.835938 198.453125 92.058594 197.507812 C 91.28125 196.558594 90.527344 195.59375 89.796875 194.609375 C 89.066406 193.625 88.359375 192.621094 87.679688 191.601562 C 86.996094 190.582031 86.339844 189.546875 85.710938 188.496094 C 85.082031 187.445312 84.476562 186.375 83.898438 185.296875 C 83.320312 184.214844 82.769531 183.121094 82.246094 182.011719 C 81.722656 180.902344 81.226562 179.78125 80.753906 178.648438 C 80.285156 177.515625 79.84375 176.371094 79.433594 175.21875 C 79.019531 174.0625 78.632812 172.898438 78.277344 171.726562 C 77.921875 170.554688 77.597656 169.371094 77.296875 168.183594 C 77 166.992188 76.730469 165.796875 76.492188 164.59375 C 76.253906 163.394531 76.042969 162.183594 75.863281 160.972656 C 75.683594 159.757812 75.535156 158.542969 75.414062 157.324219 C 75.292969 156.101562 75.203125 154.878906 75.144531 153.65625 C 75.082031 152.429688 75.050781 151.207031 75.050781 149.980469 C 75.050781 148.753906 75.082031 147.527344 75.144531 146.304688 C 75.203125 145.078125 75.292969 143.855469 75.414062 142.636719 C 75.535156 141.414062 75.683594 140.199219 75.863281 138.988281 C 76.042969 137.773438 76.253906 136.566406 76.492188 135.363281 C 76.730469 134.160156 77 132.964844 77.296875 131.777344 C 77.597656 130.585938 77.921875 129.40625 78.277344 128.230469 C 78.632812 127.058594 79.019531 125.894531 79.433594 124.738281 C 79.84375 123.585938 80.285156 122.441406 80.753906 121.308594 C 81.226562 120.175781 81.722656 119.054688 82.246094 117.949219 C 82.769531 116.839844 83.320312 115.746094 83.898438 114.664062 C 84.476562 113.582031 85.082031 112.515625 85.710938 111.464844 C 86.339844 110.410156 86.996094 109.375 87.679688 108.355469 C 88.359375 107.335938 89.066406 106.335938 89.796875 105.351562 C 90.527344 104.367188 91.28125 103.398438 92.058594 102.453125 C 92.835938 101.503906 93.636719 100.574219 94.460938 99.667969 C 95.285156 98.757812 96.128906 97.871094 96.996094 97.003906 C 97.863281 96.136719 98.75 95.292969 99.660156 94.46875 C 100.566406 93.644531 101.496094 92.84375 102.441406 92.066406 C 103.390625 91.289062 104.355469 90.535156 105.34375 89.804688 C 106.328125 89.074219 107.328125 88.367188 108.347656 87.6875 C 109.367188 87.003906 110.402344 86.351562 111.457031 85.71875 C 112.507812 85.089844 113.574219 84.484375 114.65625 83.90625 C 115.734375 83.328125 116.832031 82.777344 117.9375 82.253906 C 119.046875 81.730469 120.167969 81.234375 121.300781 80.765625 C 122.433594 80.292969 123.578125 79.851562 124.730469 79.441406 C 125.886719 79.027344 127.050781 78.644531 128.222656 78.285156 C 129.398438 77.929688 130.578125 77.605469 131.765625 77.304688 C 132.957031 77.007812 134.152344 76.738281 135.355469 76.5 C 136.558594 76.261719 137.765625 76.050781 138.976562 75.871094 C 140.191406 75.691406 141.40625 75.542969 142.628906 75.421875 C 143.847656 75.300781 145.070312 75.210938 146.292969 75.152344 C 147.519531 75.089844 148.746094 75.0625 149.972656 75.0625 C 151.195312 75.0625 152.421875 75.089844 153.648438 75.152344 C 154.871094 75.210938 156.09375 75.300781 157.3125 75.421875 C 158.535156 75.542969 159.75 75.691406 160.964844 75.871094 C 162.175781 76.050781 163.382812 76.261719 164.585938 76.5 C 165.789062 76.738281 166.984375 77.007812 168.175781 77.304688 C 169.363281 77.605469 170.546875 77.929688 171.71875 78.285156 C 172.890625 78.644531 174.054688 79.027344 175.210938 79.441406 C 176.363281 79.851562 177.507812 80.292969 178.640625 80.765625 C 179.773438 81.234375 180.894531 81.730469 182.003906 82.253906 C 183.109375 82.777344 184.207031 83.328125 185.289062 83.90625 C 186.367188 84.484375 187.433594 85.089844 188.488281 85.71875 C 189.539062 86.351562 190.574219 87.003906 191.59375 87.6875 C 192.613281 88.367188 193.613281 89.074219 194.601562 89.804688 C 195.585938 90.535156 196.550781 91.289062 197.5 92.066406 C 198.445312 92.84375 199.375 93.644531 200.28125 94.46875 C 201.191406 95.292969 202.078125 96.136719 202.945312 97.003906 C 203.8125 97.871094 204.660156 98.757812 205.480469 99.667969 C 206.304688 100.574219 207.105469 101.503906 207.882812 102.453125 C 208.660156 103.398438 209.414062 104.367188 210.144531 105.351562 C 210.875 106.335938 211.582031 107.335938 212.261719 108.355469 C 212.945312 109.375 213.601562 110.410156 214.230469 111.464844 C 214.859375 112.515625 215.464844 113.582031 216.042969 114.664062 C 216.621094 115.746094 217.171875 116.839844 217.695312 117.949219 C 218.21875 119.054688 218.71875 120.175781 219.1875 121.308594 C 219.65625 122.441406 220.097656 123.585938 220.511719 124.738281 C 220.921875 125.894531 221.308594 127.058594 221.664062 128.230469 C 222.019531 129.40625 222.347656 130.585938 222.644531 131.777344 C 222.941406 132.964844 223.210938 134.160156 223.449219 135.363281 C 223.6875 136.566406 223.898438 137.773438 224.078125 138.988281 C 224.257812 140.199219 224.410156 141.414062 224.527344 142.636719 C 224.648438 143.855469 224.738281 145.078125 224.800781 146.304688 C 224.859375 147.527344 224.890625 148.753906 224.890625 149.980469 Z M 224.890625 149.980469 " fill-opacity="1" fill-rule="nonzero"/></g><path fill="#ffffff" d="M 150 90 C 116.917969 90 90 116.917969 90 150 C 90 183.082031 116.917969 210 150 210 C 183.082031 210 210 183.082031 210 150 C 210 116.917969 183.082031 90 150 90 Z M 116.300781 190.203125 C 116.859375 172.078125 131.742188 157.5 150 157.5 C 168.257812 157.5 183.140625 172.078125 183.699219 190.203125 C 174.570312 197.863281 162.820312 202.5 150 202.5 C 137.179688 202.5 125.429688 197.863281 116.300781 190.203125 Z M 131.25 131.25 C 131.25 120.910156 139.660156 112.5 150 112.5 C 160.339844 112.5 168.75 120.910156 168.75 131.25 C 168.75 141.589844 160.339844 150 150 150 C 139.660156 150 131.25 141.589844 131.25 131.25 Z M 190.476562 183.394531 C 187.761719 169.375 177.929688 157.902344 164.90625 152.828125 C 171.75 148.085938 176.25 140.1875 176.25 131.25 C 176.25 116.777344 164.472656 105 150 105 C 135.527344 105 123.75 116.777344 123.75 131.25 C 123.75 140.1875 128.25 148.085938 135.09375 152.832031 C 122.070312 157.90625 112.238281 169.378906 109.519531 183.398438 C 102.015625 174.316406 97.5 162.675781 97.5 150 C 97.5 121.050781 121.050781 97.5 150 97.5 C 178.949219 97.5 202.5 121.050781 202.5 150 C 202.5 162.675781 197.984375 174.316406 190.476562 183.394531 Z M 190.476562 183.394531 " fill-opacity="1" fill-rule="nonzero"/></svg>