<svg xmlns="http://www.w3.org/2000/svg" xmlns:xlink="http://www.w3.org/1999/xlink" width="400" zoomAndPan="magnify" viewBox="0 0 300 299.999988" height="400" preserveAspectRatio="xMidYMid meet" version="1.0"><defs><clipPath id="8a44fccfe9"><path d="M 75.109375 75.109375 L 225 75.109375 L 225 225 L 75.109375 225 Z M 75.109375 75.109375 " clip-rule="nonzero"/></clipPath><clipPath id="c5e6b8dcf3"><path d="M 87 94 L 200.230469 94 L 200.230469 206.882812 L 87 206.882812 Z M 87 94 " clip-rule="nonzero"/></clipPath></defs><g clip-path="url(#8a44fccfe9)"><path fill="#c2c2c2" d="M 224.890625 149.980469 C 224.890625 151.207031 224.859375 152.429688 224.800781 153.65625 C 224.738281 154.878906 224.648438 156.101562 224.527344 157.324219 C 224.410156 158.542969 224.257812 159.757812 224.078125 160.972656 C 223.898438 162.183594 223.6875 163.394531 223.449219 164.59375 C 223.210938 165.796875 222.941406 166.992188 222.644531 168.183594 C 222.347656 169.371094 222.019531 170.554688 221.664062 171.726562 C 221.308594 172.898438 220.921875 174.0625 220.511719 175.21875 C 220.097656 176.371094 219.65625 177.515625 219.1875 178.648438 C 218.71875 179.78125 218.21875 180.902344 217.695312 182.011719 C 217.171875 183.121094 216.621094 184.214844 216.042969 185.296875 C 215.464844 186.378906 214.859375 187.445312 214.230469 188.496094 C 213.601562 189.546875 212.945312 190.582031 212.261719 191.601562 C 211.582031 192.621094 210.875 193.625 210.144531 194.609375 C 209.414062 195.59375 208.660156 196.558594 207.882812 197.507812 C 207.105469 198.453125 206.304688 199.382812 205.480469 200.292969 C 204.660156 201.199219 203.8125 202.085938 202.945312 202.953125 C 202.078125 203.820312 201.191406 204.667969 200.28125 205.488281 C 199.375 206.3125 198.445312 207.113281 197.5 207.890625 C 196.550781 208.667969 195.585938 209.425781 194.601562 210.15625 C 193.613281 210.882812 192.613281 211.589844 191.59375 212.273438 C 190.574219 212.953125 189.539062 213.609375 188.488281 214.238281 C 187.433594 214.871094 186.367188 215.472656 185.289062 216.050781 C 184.207031 216.628906 183.109375 217.179688 182.003906 217.703125 C 180.894531 218.230469 179.773438 218.726562 178.640625 219.195312 C 177.507812 219.664062 176.363281 220.105469 175.210938 220.519531 C 174.054688 220.929688 172.890625 221.316406 171.71875 221.671875 C 170.546875 222.027344 169.363281 222.355469 168.175781 222.652344 C 166.984375 222.949219 165.789062 223.21875 164.585938 223.457031 C 163.382812 223.699219 162.175781 223.90625 160.964844 224.085938 C 159.75 224.265625 158.535156 224.417969 157.3125 224.535156 C 156.09375 224.65625 154.871094 224.746094 153.648438 224.808594 C 152.421875 224.867188 151.195312 224.898438 149.972656 224.898438 C 148.746094 224.898438 147.519531 224.867188 146.292969 224.808594 C 145.070312 224.746094 143.847656 224.65625 142.628906 224.535156 C 141.40625 224.417969 140.191406 224.265625 138.976562 224.085938 C 137.765625 223.90625 136.558594 223.695312 135.355469 223.457031 C 134.152344 223.21875 132.957031 222.949219 131.765625 222.652344 C 130.578125 222.355469 129.398438 222.027344 128.222656 221.671875 C 127.050781 221.316406 125.886719 220.929688 124.730469 220.519531 C 123.578125 220.105469 122.433594 219.664062 121.300781 219.195312 C 120.167969 218.726562 119.046875 218.230469 117.9375 217.703125 C 116.832031 217.179688 115.734375 216.628906 114.65625 216.050781 C 113.574219 215.472656 112.507812 214.871094 111.457031 214.238281 C 110.402344 213.609375 109.367188 212.953125 108.347656 212.273438 C 107.328125 211.589844 106.328125 210.882812 105.34375 210.15625 C 104.355469 209.425781 103.390625 208.667969 102.441406 207.890625 C 101.496094 207.113281 100.566406 206.3125 99.660156 205.488281 C 98.75 204.667969 97.863281 203.820312 96.996094 202.953125 C 96.128906 202.085938 95.285156 201.199219 94.460938 200.292969 C 93.636719 199.382812 92.835938 198.453125 92.058594 197.507812 C 91.28125 196.558594 90.527344 195.59375 89.796875 194.609375 C 89.066406 193.625 88.359375 192.621094 87.679688 191.601562 C 86.996094 190.582031 86.339844 189.546875 85.710938 188.496094 C 85.082031 187.445312 84.476562 186.378906 83.898438 185.296875 C 83.320312 184.214844 82.769531 183.121094 82.246094 182.011719 C 81.722656 180.902344 81.226562 179.78125 80.753906 178.648438 C 80.285156 177.515625 79.84375 176.371094 79.433594 175.21875 C 79.019531 174.0625 78.632812 172.898438 78.277344 171.726562 C 77.921875 170.554688 77.597656 169.371094 77.296875 168.183594 C 77 166.992188 76.730469 165.796875 76.492188 164.59375 C 76.253906 163.394531 76.042969 162.183594 75.863281 160.972656 C 75.683594 159.757812 75.535156 158.542969 75.414062 157.324219 C 75.292969 156.101562 75.203125 154.878906 75.144531 153.65625 C 75.082031 152.429688 75.050781 151.207031 75.050781 149.980469 C 75.050781 148.753906 75.082031 147.527344 75.144531 146.304688 C 75.203125 145.078125 75.292969 143.855469 75.414062 142.636719 C 75.535156 141.417969 75.683594 140.199219 75.863281 138.988281 C 76.042969 137.773438 76.253906 136.566406 76.492188 135.363281 C 76.730469 134.160156 77 132.964844 77.296875 131.777344 C 77.597656 130.585938 77.921875 129.40625 78.277344 128.230469 C 78.632812 127.058594 79.019531 125.894531 79.433594 124.738281 C 79.84375 123.585938 80.285156 122.441406 80.753906 121.308594 C 81.226562 120.175781 81.722656 119.054688 82.246094 117.949219 C 82.769531 116.839844 83.320312 115.746094 83.898438 114.664062 C 84.476562 113.582031 85.082031 112.515625 85.710938 111.464844 C 86.339844 110.410156 86.996094 109.375 87.679688 108.355469 C 88.359375 107.335938 89.066406 106.335938 89.796875 105.351562 C 90.527344 104.367188 91.28125 103.398438 92.058594 102.453125 C 92.835938 101.503906 93.636719 100.574219 94.460938 99.667969 C 95.285156 98.757812 96.128906 97.871094 96.996094 97.003906 C 97.863281 96.136719 98.75 95.292969 99.660156 94.46875 C 100.566406 93.644531 101.496094 92.84375 102.441406 92.066406 C 103.390625 91.289062 104.355469 90.535156 105.34375 89.804688 C 106.328125 89.074219 107.328125 88.367188 108.347656 87.6875 C 109.367188 87.007812 110.402344 86.351562 111.457031 85.71875 C 112.507812 85.089844 113.574219 84.484375 114.65625 83.90625 C 115.734375 83.328125 116.832031 82.777344 117.9375 82.253906 C 119.046875 81.730469 120.167969 81.234375 121.300781 80.765625 C 122.433594 80.292969 123.578125 79.855469 124.730469 79.441406 C 125.886719 79.027344 127.050781 78.644531 128.222656 78.285156 C 129.398438 77.929688 130.578125 77.605469 131.765625 77.304688 C 132.957031 77.007812 134.152344 76.738281 135.355469 76.5 C 136.558594 76.261719 137.765625 76.050781 138.976562 75.871094 C 140.191406 75.691406 141.40625 75.542969 142.628906 75.421875 C 143.847656 75.300781 145.070312 75.210938 146.292969 75.152344 C 147.519531 75.089844 148.746094 75.0625 149.972656 75.0625 C 151.195312 75.0625 152.421875 75.089844 153.648438 75.152344 C 154.871094 75.210938 156.09375 75.300781 157.3125 75.421875 C 158.535156 75.542969 159.75 75.691406 160.964844 75.871094 C 162.175781 76.050781 163.382812 76.261719 164.585938 76.5 C 165.789062 76.738281 166.984375 77.007812 168.175781 77.304688 C 169.363281 77.605469 170.546875 77.929688 171.71875 78.285156 C 172.890625 78.644531 174.054688 79.027344 175.210938 79.441406 C 176.363281 79.855469 177.507812 80.292969 178.640625 80.765625 C 179.773438 81.234375 180.894531 81.730469 182.003906 82.253906 C 183.109375 82.777344 184.207031 83.328125 185.289062 83.90625 C 186.367188 84.484375 187.433594 85.089844 188.488281 85.71875 C 189.539062 86.351562 190.574219 87.007812 191.59375 87.6875 C 192.613281 88.367188 193.613281 89.074219 194.601562 89.804688 C 195.585938 90.535156 196.550781 91.289062 197.5 92.066406 C 198.445312 92.84375 199.375 93.644531 200.28125 94.46875 C 201.191406 95.292969 202.078125 96.136719 202.945312 97.003906 C 203.8125 97.871094 204.660156 98.757812 205.480469 99.667969 C 206.304688 100.574219 207.105469 101.503906 207.882812 102.453125 C 208.660156 103.398438 209.414062 104.367188 210.144531 105.351562 C 210.875 106.335938 211.582031 107.335938 212.261719 108.355469 C 212.945312 109.375 213.601562 110.410156 214.230469 111.464844 C 214.859375 112.515625 215.464844 113.582031 216.042969 114.664062 C 216.621094 115.746094 217.171875 116.839844 217.695312 117.949219 C 218.21875 119.054688 218.71875 120.175781 219.1875 121.308594 C 219.65625 122.441406 220.097656 123.585938 220.511719 124.738281 C 220.921875 125.894531 221.308594 127.058594 221.664062 128.230469 C 222.019531 129.40625 222.347656 130.585938 222.644531 131.777344 C 222.941406 132.964844 223.210938 134.160156 223.449219 135.363281 C 223.6875 136.566406 223.898438 137.773438 224.078125 138.988281 C 224.257812 140.199219 224.410156 141.417969 224.527344 142.636719 C 224.648438 143.855469 224.738281 145.078125 224.800781 146.304688 C 224.859375 147.527344 224.890625 148.753906 224.890625 149.980469 Z M 224.890625 149.980469 " fill-opacity="1" fill-rule="nonzero"/></g><g clip-path="url(#c5e6b8dcf3)"><path fill="#ffffff" d="M 168.0625 207.101562 C 167.691406 207.101562 167.324219 207.066406 166.957031 206.996094 C 166.59375 206.921875 166.242188 206.816406 165.898438 206.671875 C 165.554688 206.53125 165.230469 206.355469 164.921875 206.148438 C 164.613281 205.945312 164.324219 205.710938 164.0625 205.445312 C 163.800781 205.183594 163.566406 204.898438 163.359375 204.589844 C 163.152344 204.28125 162.980469 203.957031 162.835938 203.613281 C 162.695312 203.269531 162.589844 202.914062 162.515625 202.550781 C 162.445312 202.1875 162.40625 201.820312 162.40625 201.449219 L 162.40625 186.746094 C 162.585938 185.039062 162.40625 183.367188 161.875 181.730469 C 161.34375 180.097656 160.503906 178.640625 159.355469 177.363281 C 159 176.980469 158.707031 176.558594 158.472656 176.09375 C 158.238281 175.632812 158.066406 175.144531 157.964844 174.636719 C 157.863281 174.128906 157.832031 173.613281 157.875 173.097656 C 157.914062 172.578125 158.023438 172.078125 158.199219 171.589844 C 158.378906 171.101562 158.617188 170.644531 158.921875 170.226562 C 159.226562 169.804688 159.582031 169.429688 159.984375 169.105469 C 160.390625 168.785156 160.835938 168.519531 161.3125 168.320312 C 161.792969 168.117188 162.289062 167.984375 162.804688 167.917969 C 176.597656 166.277344 189.320312 161.867188 189.320312 137.949219 C 189.324219 135.71875 189.003906 133.53125 188.355469 131.394531 C 187.710938 129.257812 186.769531 127.257812 185.535156 125.398438 C 184.390625 123.6875 183.621094 121.824219 183.21875 119.804688 C 182.816406 117.785156 182.816406 115.769531 183.214844 113.75 C 183.730469 111.09375 183.730469 108.4375 183.214844 105.777344 C 178.957031 107.21875 175.015625 109.273438 171.398438 111.941406 C 170.710938 112.429688 169.949219 112.75 169.117188 112.898438 C 168.285156 113.046875 167.464844 113.011719 166.648438 112.789062 C 161.546875 111.347656 156.34375 110.625 151.042969 110.625 C 145.738281 110.625 140.539062 111.347656 135.4375 112.789062 C 134.621094 113.011719 133.796875 113.046875 132.964844 112.898438 C 132.136719 112.75 131.375 112.429688 130.6875 111.941406 C 127.042969 109.242188 123.066406 107.1875 118.757812 105.777344 C 118.210938 108.4375 118.210938 111.09375 118.757812 113.75 C 119.125 115.792969 119.101562 117.832031 118.679688 119.867188 C 118.261719 121.902344 117.476562 123.78125 116.324219 125.511719 C 115.09375 127.382812 114.15625 129.394531 113.507812 131.539062 C 112.863281 133.6875 112.539062 135.878906 112.535156 138.121094 C 112.535156 160.117188 123.167969 165.996094 139.113281 168.03125 C 139.632812 168.097656 140.136719 168.230469 140.621094 168.4375 C 141.105469 168.640625 141.550781 168.910156 141.960938 169.238281 C 142.371094 169.566406 142.726562 169.949219 143.03125 170.375 C 143.335938 170.804688 143.574219 171.269531 143.746094 171.765625 C 143.914062 172.246094 144.011719 172.738281 144.042969 173.246094 C 144.070312 173.753906 144.035156 174.257812 143.929688 174.753906 C 143.828125 175.25 143.65625 175.726562 143.425781 176.179688 C 143.191406 176.628906 142.90625 177.042969 142.5625 177.417969 C 141.449219 178.605469 140.621094 179.96875 140.082031 181.503906 C 139.539062 183.039062 139.332031 184.617188 139.449219 186.238281 L 139.449219 201.449219 C 139.449219 201.820312 139.414062 202.1875 139.34375 202.550781 C 139.269531 202.914062 139.164062 203.269531 139.019531 203.613281 C 138.878906 203.957031 138.703125 204.28125 138.496094 204.589844 C 138.292969 204.898438 138.058594 205.183594 137.792969 205.445312 C 137.53125 205.710938 137.246094 205.945312 136.9375 206.148438 C 136.628906 206.355469 136.304688 206.53125 135.960938 206.671875 C 135.617188 206.816406 135.265625 206.921875 134.898438 206.996094 C 134.535156 207.066406 134.167969 207.101562 133.796875 207.101562 C 133.425781 207.101562 133.058594 207.066406 132.695312 206.996094 C 132.328125 206.921875 131.976562 206.816406 131.632812 206.671875 C 131.289062 206.53125 130.964844 206.355469 130.65625 206.148438 C 130.347656 205.945312 130.0625 205.710938 129.796875 205.445312 C 129.535156 205.183594 129.300781 204.898438 129.09375 204.589844 C 128.890625 204.28125 128.714844 203.957031 128.574219 203.613281 C 128.429688 203.269531 128.324219 202.914062 128.25 202.550781 C 128.179688 202.1875 128.140625 201.820312 128.140625 201.449219 L 128.140625 198.226562 C 126.757812 198.386719 125.371094 198.457031 123.976562 198.445312 C 122.585938 198.433594 121.199219 198.335938 119.816406 198.15625 C 118.4375 197.972656 117.070312 197.707031 115.722656 197.355469 C 114.375 197.003906 113.054688 196.570312 111.757812 196.058594 C 110.464844 195.546875 109.207031 194.953125 107.984375 194.285156 C 106.761719 193.617188 105.585938 192.875 104.457031 192.0625 C 103.324219 191.25 102.246094 190.371094 101.226562 189.421875 C 100.203125 188.476562 99.242188 187.472656 98.34375 186.410156 C 96.472656 184.335938 94.285156 182.675781 91.785156 181.433594 C 91.425781 181.339844 91.078125 181.210938 90.742188 181.050781 C 90.40625 180.890625 90.089844 180.699219 89.792969 180.472656 C 89.496094 180.25 89.222656 180 88.976562 179.722656 C 88.726562 179.445312 88.507812 179.148438 88.320312 178.828125 C 88.128906 178.507812 87.972656 178.171875 87.851562 177.820312 C 87.726562 177.46875 87.640625 177.109375 87.589844 176.742188 C 87.535156 176.371094 87.519531 176.003906 87.542969 175.632812 C 87.5625 175.261719 87.621094 174.894531 87.710938 174.535156 C 87.804688 174.171875 87.933594 173.824219 88.09375 173.492188 C 88.253906 173.15625 88.445312 172.839844 88.671875 172.542969 C 88.894531 172.246094 89.144531 171.972656 89.421875 171.722656 C 89.699219 171.476562 90 171.257812 90.320312 171.070312 C 90.640625 170.878906 90.976562 170.722656 91.324219 170.601562 C 91.675781 170.476562 92.035156 170.390625 92.40625 170.339844 C 92.773438 170.285156 93.144531 170.273438 93.515625 170.292969 C 93.886719 170.3125 94.253906 170.371094 94.613281 170.464844 C 99.03125 172.074219 102.800781 174.636719 105.921875 178.152344 C 111.574219 183.808594 117.230469 188.78125 127.972656 186.746094 C 127.78125 183.679688 128.214844 180.699219 129.273438 177.8125 C 117.625 174.875 101 166.503906 101 138.234375 C 100.992188 134.886719 101.472656 131.609375 102.433594 128.402344 C 103.398438 125.195312 104.804688 122.195312 106.65625 119.40625 C 107.371094 118.335938 107.613281 117.167969 107.390625 115.898438 C 106.820312 112.847656 106.691406 109.777344 107.011719 106.6875 C 107.328125 103.601562 108.078125 100.621094 109.257812 97.75 C 109.582031 96.972656 110.054688 96.304688 110.679688 95.742188 C 111.300781 95.175781 112.015625 94.773438 112.820312 94.527344 C 114.742188 93.960938 121.640625 92.828125 134.699219 101.3125 C 139.988281 100.039062 145.351562 99.402344 150.789062 99.402344 C 156.226562 99.402344 161.585938 100.039062 166.875 101.3125 C 179.933594 92.828125 186.832031 93.902344 188.699219 94.527344 C 189.503906 94.773438 190.21875 95.175781 190.839844 95.742188 C 191.464844 96.304688 191.9375 96.972656 192.261719 97.75 C 193.445312 100.628906 194.195312 103.621094 194.511719 106.71875 C 194.828125 109.816406 194.703125 112.894531 194.128906 115.957031 C 193.882812 117.117188 194.089844 118.191406 194.75 119.179688 C 196.605469 121.976562 198.015625 124.984375 198.980469 128.203125 C 199.941406 131.417969 200.417969 134.707031 200.402344 138.0625 C 200.402344 166.730469 183.894531 175.042969 172.132812 177.644531 C 173.179688 180.707031 173.59375 183.855469 173.375 187.085938 L 173.375 201.449219 C 173.378906 201.804688 173.34375 202.160156 173.277344 202.511719 C 173.210938 202.863281 173.113281 203.203125 172.980469 203.535156 C 172.847656 203.871094 172.6875 204.1875 172.496094 204.488281 C 172.304688 204.789062 172.085938 205.070312 171.84375 205.332031 C 171.597656 205.59375 171.332031 205.828125 171.039062 206.035156 C 170.75 206.246094 170.445312 206.425781 170.121094 206.578125 C 169.796875 206.730469 169.460938 206.851562 169.117188 206.9375 C 168.769531 207.027344 168.417969 207.082031 168.0625 207.101562 Z M 168.0625 207.101562 " fill-opacity="1" fill-rule="nonzero"/></g></svg>