<svg xmlns="http://www.w3.org/2000/svg" xmlns:xlink="http://www.w3.org/1999/xlink" width="4400" zoomAndPan="magnify" viewBox="0 0 3300 1619.99993" height="2160" preserveAspectRatio="xMidYMid meet" version="1.0"><defs><g/></defs><path fill="#ffffff" d="M 1592.902344 864.605469 C 1579.921875 848.628906 1560.699219 839.390625 1539.980469 841.140625 C 1517.511719 843.136719 1498.789062 858.113281 1484.558594 877.085938 C 1483.0625 878.085938 1481.8125 879.082031 1480.566406 880.582031 C 1467.585938 895.558594 1454.601562 919.523438 1433.382812 924.019531 C 1415.910156 927.761719 1414.164062 898.804688 1413.664062 887.320312 C 1412.664062 870.097656 1391.695312 863.605469 1379.710938 876.089844 C 1350.253906 907.042969 1327.789062 943.242188 1311.5625 982.433594 C 1311.8125 979.6875 1312.308594 976.941406 1312.558594 974.195312 C 1320.046875 923.519531 1336.027344 871.34375 1362.988281 827.660156 C 1376.46875 805.941406 1342.265625 789.214844 1329.285156 809.933594 C 1298.082031 858.613281 1274.613281 910.039062 1265.128906 967.707031 C 1256.140625 1022.625 1253.644531 1087.28125 1278.609375 1138.707031 C 1287.097656 1156.429688 1315.804688 1145.945312 1315.304688 1127.972656 C 1315.304688 1127.472656 1315.304688 1126.972656 1315.304688 1126.476562 C 1315.304688 1126.226562 1315.304688 1126.226562 1315.304688 1125.976562 C 1324.042969 1058.324219 1341.019531 990.671875 1379.960938 934.753906 C 1386.953125 951.976562 1400.433594 965.207031 1423.648438 965.957031 C 1432.886719 966.207031 1441.871094 964.460938 1450.359375 960.964844 C 1444.867188 993.167969 1446.863281 1027.617188 1460.84375 1056.824219 C 1473.078125 1082.289062 1502.535156 1078.046875 1521.257812 1062.066406 C 1537.984375 1047.839844 1552.210938 1029.617188 1564.195312 1011.640625 C 1564.695312 1010.890625 1565.191406 1010.144531 1565.691406 1009.394531 C 1564.695312 1020.128906 1563.945312 1030.863281 1563.445312 1041.847656 C 1562.695312 1058.324219 1561.949219 1075.546875 1567.6875 1091.277344 C 1573.679688 1108 1600.390625 1101.261719 1604.886719 1086.035156 C 1614.371094 1053.332031 1611.875 1016.136719 1615.121094 982.183594 C 1618.617188 945.238281 1625.105469 909.039062 1630.347656 872.34375 C 1632.84375 851.375 1606.132812 853.621094 1592.902344 864.605469 Z M 1546.46875 965.957031 C 1538.980469 979.9375 1530.242188 993.417969 1520.757812 1005.898438 C 1516.265625 1011.890625 1511.769531 1017.632812 1506.527344 1023.125 C 1505.03125 1024.871094 1503.53125 1026.371094 1502.035156 1027.867188 C 1499.789062 1021.378906 1498.789062 1012.890625 1498.039062 1009.394531 C 1495.542969 997.660156 1494.296875 985.679688 1494.796875 973.695312 C 1495.542969 949.980469 1501.035156 927.015625 1511.269531 905.546875 C 1515.515625 896.558594 1521.507812 887.074219 1528.496094 879.582031 C 1535.238281 872.34375 1543.972656 873.34375 1552.710938 879.332031 C 1564.195312 887.074219 1568.9375 899.054688 1572.683594 911.535156 C 1564.445312 930.257812 1555.707031 948.484375 1546.46875 965.957031 Z M 2164.074219 837.394531 C 2183.046875 805.941406 2198.523438 772.238281 2209.757812 737.039062 C 2221.738281 700.09375 2230.976562 660.152344 2229.726562 621.207031 C 2229.230469 604.484375 2229.230469 581.515625 2215.75 569.285156 C 2201.519531 556.300781 2181.546875 561.046875 2167.816406 572.03125 C 2141.355469 593.5 2125.128906 631.195312 2113.894531 662.648438 C 2101.664062 697.347656 2094.425781 733.792969 2087.683594 769.742188 C 2083.441406 791.960938 2079.695312 814.429688 2076.199219 836.894531 C 2072.707031 839.640625 2069.960938 843.386719 2067.964844 848.128906 C 2046.742188 896.558594 2034.511719 951.230469 2001.808594 994.167969 C 1996.066406 1001.40625 1989.578125 1008.894531 1982.085938 1014.386719 C 1978.34375 1017.132812 1973.851562 1019.878906 1969.605469 1021.875 C 1967.609375 1022.875 1958.871094 1025.121094 1961.867188 1024.621094 C 1951.882812 1025.871094 1940.898438 1023.625 1933.160156 1013.390625 C 1926.417969 1004.652344 1924.171875 992.167969 1921.675781 981.683594 C 1918.929688 970.699219 1916.933594 959.46875 1916.183594 948.234375 C 1923.671875 951.726562 1932.160156 953.476562 1942.144531 952.976562 C 1968.109375 951.976562 1992.820312 936.5 2004.804688 913.285156 C 2017.035156 889.320312 2018.535156 857.863281 2006.054688 833.648438 C 1992.820312 807.9375 1965.113281 791.460938 1936.402344 802.195312 C 1906.945312 813.179688 1885.726562 841.886719 1875.992188 870.847656 C 1869.75 889.570312 1866.253906 909.039062 1865.507812 928.511719 C 1859.515625 933.503906 1852.773438 937.25 1845.285156 936.75 C 1833.804688 935.75 1831.804688 925.015625 1829.808594 915.28125 C 1822.320312 881.828125 1821.320312 846.878906 1823.316406 812.929688 C 1824.066406 799.699219 1811.335938 789.214844 1798.855469 789.464844 C 1784.875 789.714844 1775.636719 800.949219 1774.390625 814.179688 C 1772.140625 837.394531 1771.894531 860.859375 1767.648438 883.578125 C 1763.15625 907.542969 1757.664062 931.257812 1751.171875 954.722656 C 1743.683594 981.683594 1735.445312 1009.394531 1721.964844 1034.359375 C 1721.464844 1032.363281 1720.964844 1030.613281 1720.71875 1028.617188 C 1715.972656 1009.394531 1712.480469 989.671875 1710.230469 969.953125 C 1705.238281 929.511719 1703.992188 888.820312 1697 848.628906 C 1695.253906 839.140625 1684.269531 833.648438 1675.53125 835.148438 C 1665.546875 836.894531 1659.054688 844.632812 1658.308594 854.621094 C 1654.8125 901.050781 1657.558594 947.734375 1664.050781 993.667969 C 1667.042969 1015.386719 1672.039062 1036.605469 1676.78125 1057.824219 C 1680.773438 1077.296875 1686.015625 1094.769531 1704.492188 1105.253906 C 1713.476562 1110.496094 1727.207031 1108.25 1734.199219 1100.261719 C 1766.648438 1063.316406 1781.128906 1015.636719 1792.613281 968.703125 C 1793.363281 966.207031 1793.859375 963.460938 1794.359375 960.964844 C 1807.839844 978.6875 1829.308594 986.429688 1851.527344 982.433594 C 1857.769531 981.1875 1863.261719 979.1875 1868.753906 976.441406 C 1869.25 979.4375 1869.75 982.433594 1870.25 985.429688 C 1876.492188 1017.132812 1886.976562 1050.585938 1918.679688 1065.3125 C 1944.890625 1077.296875 1972.351562 1073.550781 1997.066406 1060.070312 C 2029.269531 1042.347656 2050.988281 1010.144531 2066.964844 977.941406 C 2067.214844 977.691406 2067.214844 977.191406 2067.464844 976.941406 C 2067.964844 986.679688 2068.710938 996.164062 2069.710938 1005.898438 C 2073.453125 1038.601562 2080.695312 1070.804688 2097.171875 1099.761719 C 2113.148438 1127.722656 2136.363281 1153.4375 2171.3125 1145.449219 C 2184.792969 1142.453125 2195.027344 1116.988281 2177.804688 1111.496094 C 2164.820312 1107.503906 2151.09375 1088.78125 2143.351562 1075.546875 C 2139.109375 1068.558594 2135.363281 1061.320312 2132.371094 1053.832031 C 2132.867188 1055.078125 2129.875 1045.84375 2129.875 1045.84375 C 2127.375 1037.105469 2125.378906 1028.367188 2123.632812 1019.378906 C 2115.394531 977.941406 2115.644531 935.253906 2119.386719 893.0625 C 2138.859375 880.582031 2152.839844 855.617188 2164.074219 837.394531 Z M 2165.320312 657.15625 C 2169.566406 644.921875 2174.808594 632.941406 2180.800781 621.707031 C 2183.046875 617.714844 2185.042969 613.46875 2187.289062 609.726562 C 2187.539062 610.972656 2187.789062 611.972656 2188.039062 612.71875 C 2188.289062 615.964844 2188.539062 618.960938 2188.789062 622.207031 C 2189.039062 630.195312 2188.789062 638.183594 2188.289062 645.921875 C 2187.039062 663.148438 2184.042969 680.121094 2179.800781 696.847656 C 2171.8125 728.800781 2160.828125 760.257812 2146.347656 789.714844 C 2140.855469 800.949219 2134.867188 811.683594 2128.375 822.417969 C 2136.863281 766.496094 2146.597656 710.078125 2165.320312 657.15625 Z M 1928.664062 869.097656 C 1932.660156 861.859375 1938.652344 855.617188 1945.140625 850.125 C 1947.386719 848.128906 1949.882812 845.632812 1953.878906 844.132812 C 1950.632812 845.382812 1957.125 845.632812 1954.878906 844.632812 C 1968.359375 851.625 1971.105469 861.609375 1970.855469 877.085938 C 1970.605469 885.574219 1969.105469 894.3125 1964.113281 901.300781 C 1960.867188 906.042969 1956.375 909.039062 1951.382812 910.539062 C 1946.890625 912.035156 1937.902344 913.535156 1931.910156 910.789062 C 1927.417969 908.789062 1922.921875 903.050781 1919.429688 897.308594 C 1920.925781 887.074219 1924.171875 877.585938 1928.664062 869.097656 Z M 1728.707031 1063.316406 C 1729.203125 1063.816406 1728.957031 1064.066406 1728.707031 1063.316406 Z M 1342.515625 604.980469 C 1309.5625 611.972656 1277.859375 623.953125 1247.402344 637.933594 C 1242.660156 656.15625 1235.171875 674.132812 1229.179688 691.855469 C 1222.441406 711.578125 1216.199219 731.546875 1210.707031 751.519531 C 1199.472656 791.710938 1190.488281 832.902344 1184.246094 874.339844 C 1178.253906 915.28125 1175.007812 956.722656 1174.511719 998.160156 C 1174.261719 1019.128906 1174.511719 1040.101562 1175.507812 1061.070312 C 1176.507812 1081.789062 1180.5 1103.257812 1180.003906 1123.976562 C 1179.753906 1131.964844 1175.257812 1141.203125 1167.769531 1144.699219 C 1161.527344 1147.695312 1155.539062 1149.441406 1149.046875 1147.945312 C 1147.050781 1147.695312 1145.054688 1146.945312 1143.054688 1145.945312 C 1142.804688 1145.945312 1142.554688 1145.695312 1142.308594 1145.695312 C 1136.066406 1142.453125 1132.070312 1135.710938 1131.574219 1128.722656 C 1126.328125 1110.996094 1127.328125 1089.277344 1126.328125 1071.554688 C 1125.082031 1049.085938 1124.832031 1026.621094 1125.082031 1004.152344 C 1125.832031 959.964844 1129.574219 916.28125 1136.066406 872.59375 C 1142.308594 829.65625 1151.292969 787.21875 1163.277344 745.527344 C 1169.515625 724.058594 1176.507812 702.839844 1184.496094 681.871094 C 1186.492188 676.378906 1188.738281 670.886719 1190.738281 665.394531 C 1141.808594 689.359375 1090.382812 710.828125 1034.464844 702.089844 C 1011.246094 698.597656 1030.71875 669.636719 1047.695312 671.882812 C 1105.859375 679.871094 1160.03125 649.417969 1210.957031 622.957031 C 1211.707031 621.957031 1212.207031 620.957031 1212.953125 619.710938 C 1218.445312 611.722656 1227.433594 608.976562 1235.171875 610.722656 C 1236.171875 610.222656 1237.417969 609.726562 1238.417969 609.226562 C 1277.609375 591.003906 1318.550781 575.773438 1360.988281 568.035156 C 1401.179688 560.796875 1452.105469 557.050781 1489.554688 576.523438 C 1508.027344 586.257812 1486.558594 609.226562 1471.828125 606.730469 C 1449.359375 603.234375 1427.644531 598.242188 1404.675781 597.992188 C 1383.707031 597.742188 1362.988281 600.488281 1342.515625 604.980469 Z M 1342.515625 604.980469 " fill-opacity="1" fill-rule="nonzero"/><g fill="#ffffff" fill-opacity="1"><g transform="translate(1442.368562, 738.074657)"><g><path d="M 34.390625 0 L 18.484375 0 L 1.96875 -72.046875 L 16.15625 -72.046875 L 27.046875 -21.390625 L 28.28125 -21.390625 L 41.203125 -72.046875 L 53.375 -72.046875 L 66.53125 -21.390625 L 67.75 -21.390625 L 78.703125 -72.046875 L 92.390625 -72.046875 L 75.9375 0 L 59.96875 0 L 47.359375 -46.46875 L 46.328125 -46.46875 Z M 34.390625 0 "/></g></g></g><g fill="#ffffff" fill-opacity="1"><g transform="translate(1536.675933, 738.074657)"><g><path d="M 53.71875 -24.09375 L 18.78125 -24.09375 C 19.164062 -19.363281 20.507812 -15.921875 22.8125 -13.765625 C 25.113281 -11.617188 28.253906 -10.546875 32.234375 -10.546875 C 35.347656 -10.546875 37.875 -11.128906 39.8125 -12.296875 C 41.75 -13.460938 43.3125 -15.226562 44.5 -17.59375 L 45.53125 -17.59375 L 54.59375 -11.78125 C 52.820312 -7.96875 50.144531 -4.878906 46.5625 -2.515625 C 42.988281 -0.148438 38.210938 1.03125 32.234375 1.03125 C 26.609375 1.03125 21.75 -0.0351562 17.65625 -2.171875 C 13.570312 -4.304688 10.421875 -7.484375 8.203125 -11.703125 C 5.984375 -15.921875 4.875 -21.070312 4.875 -27.15625 C 4.875 -33.332031 6.039062 -38.535156 8.375 -42.765625 C 10.707031 -47.003906 13.859375 -50.164062 17.828125 -52.25 C 21.804688 -54.34375 26.28125 -55.390625 31.25 -55.390625 C 38.9375 -55.390625 44.820312 -53.351562 48.90625 -49.28125 C 53 -45.207031 55.046875 -39.226562 55.046875 -31.34375 C 55.046875 -28.476562 54.945312 -26.257812 54.75 -24.6875 Z M 41.984375 -32.921875 C 41.847656 -37.054688 40.882812 -40.066406 39.09375 -41.953125 C 37.3125 -43.847656 34.695312 -44.796875 31.25 -44.796875 C 24.34375 -44.796875 20.285156 -40.835938 19.078125 -32.921875 Z M 41.984375 -32.921875 "/></g></g></g><g fill="#ffffff" fill-opacity="1"><g transform="translate(1595.753539, 738.074657)"><g><path d="M 22.5625 1.03125 C 17.675781 1.03125 13.941406 -0.289062 11.359375 -2.9375 C 8.773438 -5.582031 7.484375 -9.597656 7.484375 -14.984375 L 7.484375 -76.1875 L 21.140625 -76.1875 L 21.140625 -15.515625 C 21.140625 -12.203125 22.519531 -10.546875 25.28125 -10.546875 C 26.070312 -10.546875 26.910156 -10.675781 27.796875 -10.9375 L 28.484375 -10.75 L 29.71875 -0.25 C 28.957031 0.144531 27.953125 0.457031 26.703125 0.6875 C 25.460938 0.914062 24.082031 1.03125 22.5625 1.03125 Z M 22.5625 1.03125 "/></g></g></g><g fill="#ffffff" fill-opacity="1"><g transform="translate(1626.99224, 738.074657)"><g><path d="M 31.6875 1.03125 C 26.425781 1.03125 21.773438 -0.0546875 17.734375 -2.234375 C 13.691406 -4.421875 10.535156 -7.632812 8.265625 -11.875 C 6.003906 -16.113281 4.875 -21.207031 4.875 -27.15625 C 4.875 -33.132812 6.003906 -38.238281 8.265625 -42.46875 C 10.535156 -46.707031 13.675781 -49.921875 17.6875 -52.109375 C 21.695312 -54.296875 26.28125 -55.390625 31.4375 -55.390625 C 42.90625 -55.390625 50.25 -51.234375 53.46875 -42.921875 L 44.109375 -36.21875 L 43.0625 -36.21875 C 41.945312 -38.78125 40.492188 -40.6875 38.703125 -41.9375 C 36.910156 -43.1875 34.488281 -43.8125 31.4375 -43.8125 C 27.5 -43.8125 24.425781 -42.445312 22.21875 -39.71875 C 20.019531 -36.988281 18.921875 -32.800781 18.921875 -27.15625 C 18.921875 -21.570312 20.035156 -17.40625 22.265625 -14.65625 C 24.503906 -11.914062 27.644531 -10.546875 31.6875 -10.546875 C 34.644531 -10.546875 37.148438 -11.34375 39.203125 -12.9375 C 41.253906 -14.53125 42.722656 -16.820312 43.609375 -19.8125 L 44.640625 -19.90625 L 54.359375 -14.59375 C 52.972656 -9.988281 50.414062 -6.234375 46.6875 -3.328125 C 42.957031 -0.421875 37.957031 1.03125 31.6875 1.03125 Z M 31.6875 1.03125 "/></g></g></g><g fill="#ffffff" fill-opacity="1"><g transform="translate(1683.014957, 738.074657)"><g><path d="M 31.59375 1.03125 C 26.269531 1.03125 21.59375 -0.0546875 17.5625 -2.234375 C 13.539062 -4.421875 10.421875 -7.625 8.203125 -11.84375 C 5.984375 -16.070312 4.875 -21.175781 4.875 -27.15625 C 4.875 -33.132812 5.984375 -38.238281 8.203125 -42.46875 C 10.421875 -46.707031 13.539062 -49.921875 17.5625 -52.109375 C 21.59375 -54.296875 26.269531 -55.390625 31.59375 -55.390625 C 36.914062 -55.390625 41.585938 -54.296875 45.609375 -52.109375 C 49.628906 -49.921875 52.753906 -46.707031 54.984375 -42.46875 C 57.222656 -38.238281 58.34375 -33.132812 58.34375 -27.15625 C 58.34375 -21.175781 57.222656 -16.070312 54.984375 -11.84375 C 52.753906 -7.625 49.628906 -4.421875 45.609375 -2.234375 C 41.585938 -0.0546875 36.914062 1.03125 31.59375 1.03125 Z M 31.59375 -10.546875 C 40.03125 -10.546875 44.25 -16.082031 44.25 -27.15625 C 44.25 -32.90625 43.164062 -37.117188 41 -39.796875 C 38.832031 -42.472656 35.695312 -43.8125 31.59375 -43.8125 C 23.144531 -43.8125 18.921875 -38.257812 18.921875 -27.15625 C 18.921875 -16.082031 23.144531 -10.546875 31.59375 -10.546875 Z M 31.59375 -10.546875 "/></g></g></g><g fill="#ffffff" fill-opacity="1"><g transform="translate(1746.182172, 738.074657)"><g><path d="M 7.828125 0 L 7.828125 -54.359375 L 20.9375 -54.359375 L 20.9375 -47.0625 L 21.984375 -46.859375 C 23.753906 -49.785156 25.828125 -51.9375 28.203125 -53.3125 C 30.585938 -54.695312 33.640625 -55.390625 37.359375 -55.390625 C 41.460938 -55.390625 44.757812 -54.578125 47.25 -52.953125 C 49.75 -51.328125 51.578125 -48.953125 52.734375 -45.828125 L 53.765625 -45.828125 C 55.441406 -49.078125 57.597656 -51.484375 60.234375 -53.046875 C 62.878906 -54.609375 66.175781 -55.390625 70.125 -55.390625 C 81.394531 -55.390625 87.03125 -49.113281 87.03125 -36.5625 L 87.03125 0 L 73.375 0 L 73.375 -34.84375 C 73.375 -38.03125 72.75 -40.328125 71.5 -41.734375 C 70.25 -43.148438 68.242188 -43.859375 65.484375 -43.859375 C 57.992188 -43.859375 54.25 -38.847656 54.25 -28.828125 L 54.25 0 L 40.609375 0 L 40.609375 -34.84375 C 40.609375 -38.03125 39.972656 -40.328125 38.703125 -41.734375 C 37.441406 -43.148438 35.429688 -43.859375 32.671875 -43.859375 C 29.160156 -43.859375 26.414062 -42.679688 24.4375 -40.328125 C 22.46875 -37.984375 21.484375 -34.25 21.484375 -29.125 L 21.484375 0 Z M 7.828125 0 "/></g></g></g><g fill="#ffffff" fill-opacity="1"><g transform="translate(1840.193908, 738.074657)"><g><path d="M 53.71875 -24.09375 L 18.78125 -24.09375 C 19.164062 -19.363281 20.507812 -15.921875 22.8125 -13.765625 C 25.113281 -11.617188 28.253906 -10.546875 32.234375 -10.546875 C 35.347656 -10.546875 37.875 -11.128906 39.8125 -12.296875 C 41.75 -13.460938 43.3125 -15.226562 44.5 -17.59375 L 45.53125 -17.59375 L 54.59375 -11.78125 C 52.820312 -7.96875 50.144531 -4.878906 46.5625 -2.515625 C 42.988281 -0.148438 38.210938 1.03125 32.234375 1.03125 C 26.609375 1.03125 21.75 -0.0351562 17.65625 -2.171875 C 13.570312 -4.304688 10.421875 -7.484375 8.203125 -11.703125 C 5.984375 -15.921875 4.875 -21.070312 4.875 -27.15625 C 4.875 -33.332031 6.039062 -38.535156 8.375 -42.765625 C 10.707031 -47.003906 13.859375 -50.164062 17.828125 -52.25 C 21.804688 -54.34375 26.28125 -55.390625 31.25 -55.390625 C 38.9375 -55.390625 44.820312 -53.351562 48.90625 -49.28125 C 53 -45.207031 55.046875 -39.226562 55.046875 -31.34375 C 55.046875 -28.476562 54.945312 -26.257812 54.75 -24.6875 Z M 41.984375 -32.921875 C 41.847656 -37.054688 40.882812 -40.066406 39.09375 -41.953125 C 37.3125 -43.847656 34.695312 -44.796875 31.25 -44.796875 C 24.34375 -44.796875 20.285156 -40.835938 19.078125 -32.921875 Z M 41.984375 -32.921875 "/></g></g></g><g fill="#ffffff" fill-opacity="1"><g transform="translate(1899.271514, 738.074657)"><g/></g></g><g fill="#ffffff" fill-opacity="1"><g transform="translate(1923.070083, 738.074657)"><g><path d="M 37.5 -12.953125 L 41.046875 -2.859375 C 39.566406 -1.640625 37.707031 -0.6875 35.46875 0 C 33.238281 0.6875 30.710938 1.03125 27.890625 1.03125 C 22.015625 1.03125 17.546875 -0.566406 14.484375 -3.765625 C 11.429688 -6.972656 9.90625 -11.628906 9.90625 -17.734375 L 9.90625 -43.5625 L 1.625 -43.5625 L 1.625 -54.40625 L 9.90625 -54.40625 L 9.90625 -65 L 23.5625 -67.21875 L 23.5625 -54.40625 L 38.984375 -54.40625 L 38.984375 -43.5625 L 23.5625 -43.5625 L 23.5625 -18.71875 C 23.5625 -16.03125 24.117188 -14.066406 25.234375 -12.828125 C 26.347656 -11.597656 27.972656 -10.984375 30.109375 -10.984375 C 32.535156 -10.984375 34.65625 -11.640625 36.46875 -12.953125 Z M 37.5 -12.953125 "/></g></g></g><g fill="#ffffff" fill-opacity="1"><g transform="translate(1965.296528, 738.074657)"><g><path d="M 31.59375 1.03125 C 26.269531 1.03125 21.59375 -0.0546875 17.5625 -2.234375 C 13.539062 -4.421875 10.421875 -7.625 8.203125 -11.84375 C 5.984375 -16.070312 4.875 -21.175781 4.875 -27.15625 C 4.875 -33.132812 5.984375 -38.238281 8.203125 -42.46875 C 10.421875 -46.707031 13.539062 -49.921875 17.5625 -52.109375 C 21.59375 -54.296875 26.269531 -55.390625 31.59375 -55.390625 C 36.914062 -55.390625 41.585938 -54.296875 45.609375 -52.109375 C 49.628906 -49.921875 52.753906 -46.707031 54.984375 -42.46875 C 57.222656 -38.238281 58.34375 -33.132812 58.34375 -27.15625 C 58.34375 -21.175781 57.222656 -16.070312 54.984375 -11.84375 C 52.753906 -7.625 49.628906 -4.421875 45.609375 -2.234375 C 41.585938 -0.0546875 36.914062 1.03125 31.59375 1.03125 Z M 31.59375 -10.546875 C 40.03125 -10.546875 44.25 -16.082031 44.25 -27.15625 C 44.25 -32.90625 43.164062 -37.117188 41 -39.796875 C 38.832031 -42.472656 35.695312 -43.8125 31.59375 -43.8125 C 23.144531 -43.8125 18.921875 -38.257812 18.921875 -27.15625 C 18.921875 -16.082031 23.144531 -10.546875 31.59375 -10.546875 Z M 31.59375 -10.546875 "/></g></g></g></svg>